HIERARCHY
ROOT Hips
{
	OFFSET -0.001795 -0.223333 0.028219
	CHANNELS 6 Xposition Yposition Zposition Zrotation Yrotation Xrotation 
	JOINT LeftUpLeg
	{
		OFFSET 0.069520 -0.091406 -0.006815
		CHANNELS 3 Zrotation Yrotation Xrotation
		JOINT LeftLeg
		{
			OFFSET 0.034277 -0.375199 -0.004496
			CHANNELS 3 Zrotation Yrotation Xrotation
			JOINT LeftFoot
			{
				OFFSET -0.013596 -0.397961 -0.043693
				CHANNELS 3 Zrotation Yrotation Xrotation
				JOINT LeftToe
				{
					OFFSET 0.026358 -0.055791 0.119288
					CHANNELS 3 Zrotation Yrotation Xrotation
					End Site
					{
						OFFSET 0.000000 0.000000 0.000000
					}
				}
			}
		}
	}
	JOINT RightUpLeg
	{
		OFFSET -0.067670 -0.090522 -0.004320
		CHANNELS 3 Zrotation Yrotation Xrotation
		JOINT RightLeg
		{
			OFFSET -0.038290 -0.382569 -0.008850
			CHANNELS 3 Zrotation Yrotation Xrotation
			JOINT RightFoot
			{
				OFFSET 0.015774 -0.398415 -0.042312
				CHANNELS 3 Zrotation Yrotation Xrotation
				JOINT RightToe
				{
					OFFSET -0.025372 -0.048144 0.123348
					CHANNELS 3 Zrotation Yrotation Xrotation
					End Site
					{
						OFFSET 0.000000 0.000000 0.000000
					}
				}
			}
		}
	}
	JOINT Spine
	{
		OFFSET -0.002533 0.108963 -0.026696
		CHANNELS 3 Zrotation Yrotation Xrotation
		JOINT Spine1
		{
			OFFSET 0.005487 0.135180 0.001092
			CHANNELS 3 Zrotation Yrotation Xrotation
			JOINT Spine2
			{
				OFFSET 0.001457 0.052922 0.025425
				CHANNELS 3 Zrotation Yrotation Xrotation
				JOINT Neck
				{
					OFFSET -0.002778 0.213870 -0.042857
					CHANNELS 3 Zrotation Yrotation Xrotation
					JOINT Head
					{
						OFFSET 0.005152 0.064970 0.051349
						CHANNELS 3 Zrotation Yrotation Xrotation
						End Site
						{
							OFFSET 0.000000 0.000000 0.000000
						}
					}
				}
				JOINT LeftShoulder
				{
					OFFSET 0.078845 0.121749 -0.034090
					CHANNELS 3 Zrotation Yrotation Xrotation
					JOINT LeftArm
					{
						OFFSET 0.090977 0.030469 -0.008868
						CHANNELS 3 Zrotation Yrotation Xrotation
						JOINT LeftForeArm
						{
							OFFSET 0.259612 -0.012772 -0.027456
							CHANNELS 3 Zrotation Yrotation Xrotation
							JOINT LeftHand
							{
								OFFSET 0.249234 0.008986 -0.001171
								CHANNELS 3 Zrotation Yrotation Xrotation
								End Site
								{
									OFFSET 0.000000 0.000000 0.000000
								}
							}
						}
					}
				}
				JOINT RightShoulder
				{
					OFFSET -0.081759 0.118833 -0.038615
					CHANNELS 3 Zrotation Yrotation Xrotation
					JOINT RightArm
					{
						OFFSET -0.096012 0.032551 -0.009143
						CHANNELS 3 Zrotation Yrotation Xrotation
						JOINT RightForeArm
						{
							OFFSET -0.253742 -0.013329 -0.021401
							CHANNELS 3 Zrotation Yrotation Xrotation
							JOINT RightHand
							{
								OFFSET -0.255298 0.007772 -0.005559
								CHANNELS 3 Zrotation Yrotation Xrotation
								End Site
								{
									OFFSET 0.000000 0.000000 0.000000
								}
							}
						}
					}
				}
			}
		}
	}
}
MOTION
Frames: 8
Frame Time: 0.050000
-1.012656 0.739439 1.248664 -40.786457 -78.451865 46.419479 0.849343 17.676322 -46.408840 70.066424 -10.499003 52.137429 -23.577322 -47.514275 -6.465735 0.000000 0.000000 0.000000 -42.490263 14.851905 -56.739449 41.220291 1.691600 27.227500 -30.634970 -57.231910 21.876649 0.000000 0.000000 0.000000 29.441939 15.548654 81.726824 4.641788 -1.051055 -32.087906 -9.565919 -20.121931 21.367504 -11.646173 3.207241 -39.314170 0.000000 0.000000 0.000000 -22.151440 -19.737698 18.948056 -16.570187 -46.624587 1.296408 27.778295 -27.023510 -5.340063 0.000000 0.000000 0.000000 14.139947 38.394050 8.875406 29.752793 30.051529 4.323864 -16.126679 41.116092 -7.870188 0.000000 0.000000 0.000000 
-1.045509 0.738603 1.222259 -37.449544 -79.038296 44.024066 3.187708 18.221221 -44.352482 69.756586 -9.555687 51.352958 -25.997630 -45.917555 -1.611565 0.000000 0.000000 0.000000 -44.253876 15.164404 -59.498225 43.659547 0.643326 29.396924 -30.511411 -56.866291 24.613426 0.000000 0.000000 0.000000 28.662097 16.026024 81.661877 5.553404 -1.178648 -33.165219 -8.675449 -18.540235 21.959443 -11.258220 3.259439 -39.829648 0.000000 0.000000 0.000000 -20.664199 -18.908576 17.320343 -19.300978 -44.938635 2.039939 29.066291 -29.257715 -5.945519 0.000000 0.000000 0.000000 13.788249 37.985202 9.342967 27.181502 29.090832 3.371900 -14.251547 39.801968 -6.379776 0.000000 0.000000 0.000000 
-1.085969 0.741318 1.191757 -25.836145 -79.089842 34.090706 5.355241 18.315254 -42.630308 66.918228 -8.811299 50.750389 -31.744898 -43.929112 8.720201 0.000000 0.000000 0.000000 -47.770452 14.473442 -59.965725 47.804855 -0.306918 28.091944 -37.197101 -58.411971 34.038758 0.000000 0.000000 0.000000 29.749019 14.659684 81.802801 5.516825 -1.140064 -34.061011 -9.676976 -18.538331 21.558707 -12.809814 4.205138 -40.389825 0.000000 0.000000 0.000000 -20.580894 -18.410409 16.624867 -19.192125 -41.512283 1.515759 30.203289 -32.505608 -6.965819 0.000000 0.000000 0.000000 12.109461 36.290539 8.936349 25.799754 28.582297 2.782853 -13.335851 40.963391 -6.212621 0.000000 0.000000 0.000000 
-1.132060 0.746099 1.158801 -21.581823 -78.692549 31.314256 6.198941 17.812901 -41.163729 66.406603 -7.815464 48.780149 -35.285646 -39.741571 18.224046 0.000000 0.000000 0.000000 -46.535768 14.681858 -61.539756 50.692962 -1.292947 30.066753 -47.156972 -61.948494 43.612255 0.000000 0.000000 0.000000 29.063864 14.137056 79.654601 4.640157 -0.908575 -35.306314 -9.191629 -17.123617 22.948620 -14.486654 4.980483 -41.768668 0.000000 0.000000 0.000000 -21.725585 -15.745064 15.804124 -20.054725 -38.558656 0.919869 28.736513 -36.798405 -7.432450 0.000000 0.000000 0.000000 12.571817 35.702446 8.636906 23.869788 27.957784 2.316386 -11.037906 37.600273 -4.600420 0.000000 0.000000 0.000000 
-1.179484 0.754805 1.126716 -18.108081 -79.344129 28.319755 7.842151 18.787646 -40.432199 68.430072 -8.461922 49.502438 -39.113120 -33.174777 32.351801 0.000000 0.000000 0.000000 -42.598579 15.246172 -61.395348 52.057543 -1.592152 33.330346 -51.779106 -64.261922 45.262121 0.000000 0.000000 0.000000 28.365897 14.078593 77.138817 3.077012 -0.798469 -32.999303 -7.811150 -15.752232 22.883450 -16.376483 5.907435 -40.543684 0.000000 0.000000 0.000000 -23.189378 -14.876625 16.120557 -19.222508 -39.347253 0.668033 24.840605 -33.901551 -5.799367 0.000000 0.000000 0.000000 12.070332 35.245049 8.192783 19.705596 27.928363 1.709368 -10.045504 36.673179 -4.170724 0.000000 0.000000 0.000000 
-1.224529 0.764805 1.099043 -7.231085 -77.546762 18.180994 4.023608 17.996458 -44.680888 73.249366 -11.370356 49.886245 -40.923656 -29.540887 40.065690 0.000000 0.000000 0.000000 -40.544009 14.892459 -60.343172 54.307471 -2.737795 36.295384 -55.837106 -65.036140 48.423639 0.000000 0.000000 0.000000 28.850899 12.913151 76.465025 4.189294 -1.046088 -31.326488 -9.668587 -15.963426 20.754057 -18.808859 7.253222 -40.473173 0.000000 0.000000 0.000000 -23.593200 -14.719549 15.938348 -19.597646 -36.536760 0.384292 24.217272 -31.875177 -5.256963 0.000000 0.000000 0.000000 10.399403 36.355524 8.681407 16.195121 28.245715 1.237770 -9.726384 34.447197 -3.703235 0.000000 0.000000 0.000000 
-1.269011 0.778255 1.077180 -4.511764 -77.362722 15.712460 -1.651096 18.325207 -52.015853 73.123421 -15.916632 53.484730 -40.499580 -37.019353 31.561697 0.000000 0.000000 0.000000 -34.822493 15.532688 -59.533144 53.280573 -3.264515 42.412747 -53.645862 -66.099648 43.201053 0.000000 0.000000 0.000000 28.045305 13.298205 76.818979 2.721211 -0.948604 -31.042602 -7.748545 -13.764221 21.260202 -17.937534 7.298939 -37.951300 0.000000 0.000000 0.000000 -27.013243 -15.516359 17.295759 -15.727419 -36.098628 -0.663786 20.763957 -31.162542 -4.556835 0.000000 0.000000 0.000000 9.057497 35.965905 9.048599 10.869051 28.018087 0.160353 -11.061376 31.561762 -3.550095 0.000000 0.000000 0.000000 
-1.316651 0.791687 1.060315 -2.196149 -74.556008 13.967468 -9.941377 16.222426 -60.405519 65.537915 -20.234191 59.290439 -27.878885 -39.388931 11.675411 0.000000 0.000000 0.000000 -28.524765 15.167103 -56.283534 51.387028 -3.157274 47.165994 -52.791041 -67.012828 39.483377 0.000000 0.000000 0.000000 26.995506 12.564355 76.088785 3.965789 -1.213377 -30.499706 -8.071769 -11.061969 20.362140 -18.471745 8.224946 -36.029925 0.000000 0.000000 0.000000 -31.111159 -14.752691 17.270465 -13.963444 -34.559497 -1.229595 17.336262 -29.597170 -3.620351 0.000000 0.000000 0.000000 9.420045 36.032291 9.726987 7.120986 28.486915 -0.516654 -11.452556 26.540600 -2.680241 0.000000 0.000000 0.000000 
